HIERARCHY
ROOT Hips
{
	OFFSET 0.00000 0.00000 0.00000
	CHANNELS 6 Xposition Yposition Zposition Zrotation Yrotation Xrotation 
	JOINT LHipJoint
	{
		OFFSET 0 0 0
		CHANNELS 3 Zrotation Yrotation Xrotation
		JOINT LeftUpLeg
		{
			OFFSET 1.80322 -1.53100 0.99595
			CHANNELS 3 Zrotation Yrotation Xrotation
			JOINT LeftLeg
			{
				OFFSET 2.25177 -6.18669 0.00000
				CHANNELS 3 Zrotation Yrotation Xrotation
				JOINT LeftFoot
				{
					OFFSET 2.26601 -6.22582 0.00000
					CHANNELS 3 Zrotation Yrotation Xrotation
					JOINT LeftToeBase
					{
						OFFSET 0.23701 -0.65119 2.15848
						CHANNELS 3 Zrotation Yrotation Xrotation
						End Site
						{
							OFFSET 0.00000 -0.00000 1.12949
						}
					}
				}
			}
		}
	}
	JOINT RHipJoint
	{
		OFFSET 0 0 0
		CHANNELS 3 Zrotation Yrotation Xrotation
		JOINT RightUpLeg
		{
			OFFSET -1.93977 -1.53100 0.99595
			CHANNELS 3 Zrotation Yrotation Xrotation
			JOINT RightLeg
			{
				OFFSET -2.28036 -6.26523 0.00000
				CHANNELS 3 Zrotation Yrotation Xrotation
				JOINT RightFoot
				{
					OFFSET -2.25490 -6.19528 0.00000
					CHANNELS 3 Zrotation Yrotation Xrotation
					JOINT RightToeBase
					{
						OFFSET -0.28375 -0.77960 2.23137
						CHANNELS 3 Zrotation Yrotation Xrotation
						End Site
						{
							OFFSET -0.00000 -0.00000 1.17899
						}
					}
				}
			}
		}
	}
	JOINT LowerBack
	{
		OFFSET 0 0 0
		CHANNELS 3 Zrotation Yrotation Xrotation
		JOINT Spine
		{
			OFFSET -0.00088 2.12090 -0.02806
			CHANNELS 3 Zrotation Yrotation Xrotation
			JOINT Spine1
			{
				OFFSET -0.00286 2.09666 0.12974
				CHANNELS 3 Zrotation Yrotation Xrotation
				JOINT Neck
				{
					OFFSET 0 0 0
					CHANNELS 3 Zrotation Yrotation Xrotation
					JOINT Neck1
					{
						OFFSET 0.07328 1.83526 0.07290
						CHANNELS 3 Zrotation Yrotation Xrotation
						JOINT Head
						{
							OFFSET -0.06683 1.74974 -0.49542
							CHANNELS 3 Zrotation Yrotation Xrotation
							End Site
							{
								OFFSET -0.03398 1.85163 -0.17573
							}
						}
					}
				}
				JOINT LeftShoulder
				{
					OFFSET 0 0 0
					CHANNELS 3 Zrotation Yrotation Xrotation
					JOINT LeftArm
					{
						OFFSET 3.02113 1.18018 0.40602
						CHANNELS 3 Zrotation Yrotation Xrotation
						JOINT LeftForeArm
						{
							OFFSET 4.58538 -0.00000 -0.00000
							CHANNELS 3 Zrotation Yrotation Xrotation
							JOINT LeftHand
							{
								OFFSET 2.68935 -0.00000 -0.00000
								CHANNELS 3 Zrotation Yrotation Xrotation
								JOINT LeftFingerBase
								{
									OFFSET 0 0 0
									CHANNELS 3 Zrotation Yrotation Xrotation
									JOINT LeftHandIndex1
									{
										OFFSET 0.58506 -0.00000 -0.00000
										CHANNELS 3 Zrotation Yrotation Xrotation
										End Site
										{
											OFFSET 0.47169 -0.00000 -0.00000
										}
									}
								}
								JOINT LThumb
								{
									OFFSET 0 0 0
									CHANNELS 3 Zrotation Yrotation Xrotation
									End Site
									{
										OFFSET 0.47889 -0.00000 0.47889
									}
								}
							}
						}
					}
				}
				JOINT RightShoulder
				{
					OFFSET 0 0 0
					CHANNELS 3 Zrotation Yrotation Xrotation
					JOINT RightArm
					{
						OFFSET -2.95074 1.18843 0.31430
						CHANNELS 3 Zrotation Yrotation Xrotation
						JOINT RightForeArm
						{
							OFFSET -4.47450 -0.00000 -0.00000
							CHANNELS 3 Zrotation Yrotation Xrotation
							JOINT RightHand
							{
								OFFSET -2.93896 -0.00000 -0.00000
								CHANNELS 3 Zrotation Yrotation Xrotation
								JOINT RightFingerBase
								{
									OFFSET 0 0 0
									CHANNELS 3 Zrotation Yrotation Xrotation
									JOINT RightHandIndex1
									{
										OFFSET -0.40509 -0.00000 -0.00000
										CHANNELS 3 Zrotation Yrotation Xrotation
										End Site
										{
											OFFSET -0.32660 -0.00000 -0.00000
										}
									}
								}
								JOINT RThumb
								{
									OFFSET 0 0 0
									CHANNELS 3 Zrotation Yrotation Xrotation
									End Site
									{
										OFFSET -0.33158 -0.00000 0.33158
									}
								}
							}
						}
					}
				}
			}
		}
	}
}
MOTION
Frames: 9
Frame Time: .0083333
1.8697 9.5523 0.8828 1.0384 -14.2328 8.3314 0.0000 0.0000 0.0000 0.7994 0.5595 -91.2413 26.6872 18.8922 109.9058 1.9008 -5.8687 -24.8627 0.1834 -2.7583 -7.6066 0.0000 0.0000 0.0000 -26.5458 -36.2569 -58.6635 -28.9906 -17.9397 117.1880 -1.1613 40.7024 -33.5341 -4.6718 13.0043 -39.3847 -5.4987 -1.0009 33.1274 -1.5403 -3.6091 2.0531 2.7912 -1.3065 -14.5924 18.3850 11.0730 -8.8079 -8.2739 13.5742 15.0882 -4.1759 6.8888 7.9629 -0.0000 -0.0000 0.0000 -74.0079 -62.5547 46.1877 156.8236 -34.2811 -112.7626 -0.0000 0.0000 -16.9010 25.2985 7.7509 3.6475 -7.1250 0.0000 -0.0000 -1.3217 38.5381 0.2104 -0.0000 -0.0000 0.0000 66.5028 35.2574 33.1865 -147.9874 42.5572 -107.2507 0.0000 -0.0000 -40.5234 -10.8347 -12.1635 2.3092 7.1250 -0.0000 -0.0000 14.6267 -41.8924 1.1485
1.8766 9.5759 0.8783 0.8092 -14.6681 8.3394 0.0000 0.0000 0.0000 1.2348 0.5762 -90.8779 26.6532 18.9038 109.8008 1.9105 -5.5729 -24.9605 0.1838 -2.7610 -7.6141 0.0000 0.0000 0.0000 -25.8768 -36.4127 -58.9440 -28.8743 -17.9960 116.8110 -1.0990 40.8986 -33.4294 -4.6706 13.0030 -39.3797 -5.6441 -0.9384 33.2132 -1.5892 -3.5984 2.0600 2.8131 -1.2941 -14.6147 18.5460 11.1954 -8.7408 -8.3216 13.7277 14.8721 -4.1966 6.9649 7.9164 -0.0000 0.0000 0.0000 -73.0012 -62.5155 45.0910 156.8295 -34.2748 -112.7659 -0.0000 0.0000 -17.0420 25.3142 7.6295 3.5934 -7.1250 0.0000 -0.0000 -1.2990 38.4057 0.2110 -0.0000 0.0000 0.0000 67.0431 34.0209 33.8253 -148.9504 41.7762 -107.8971 0.0000 -0.0000 -41.2909 -11.1391 -11.9912 2.3426 7.1250 -0.0000 -0.0000 14.3171 -41.7522 1.1737
1.8804 9.5983 0.8728 0.5781 -15.0043 8.3395 0.0000 0.0000 0.0000 1.6637 0.5458 -90.5357 26.6134 18.9173 109.6780 1.9160 -5.2857 -25.0312 0.1882 -2.7941 -7.7062 0.0000 0.0000 0.0000 -25.2762 -36.5194 -59.1325 -28.7621 -18.0495 116.4483 -1.0323 41.1066 -33.3176 -4.6763 13.0097 -39.4047 -5.7109 -0.8765 33.2776 -1.6430 -3.5584 2.0725 2.7750 -1.2742 -14.6292 18.6738 11.2664 -8.6772 -8.3441 13.8119 14.6714 -4.2142 7.0083 7.8619 -0.0000 0.0000 0.0000 -72.1548 -62.4476 44.2363 156.8221 -34.2827 -112.7618 -0.0000 0.0000 -17.0615 25.4227 7.5831 3.5892 -7.1250 0.0000 -0.0000 -1.2022 38.3623 0.1966 -0.0000 0.0000 0.0000 67.6816 32.7481 34.6439 -149.8040 41.0608 -108.4619 0.0000 -0.0000 -41.8590 -11.5644 -11.8780 2.4117 7.1250 -0.0000 -0.0000 13.9188 -41.6807 1.1647
1.8812 9.6195 0.8659 0.3541 -15.2404 8.3327 0.0000 0.0000 0.0000 2.0743 0.4660 -90.2198 26.5671 18.9329 109.5352 1.9176 -5.0076 -25.0773 0.1966 -2.8549 -7.8752 0.0000 0.0000 0.0000 -24.7696 -36.5645 -59.2203 -28.6518 -18.1013 116.0927 -0.9410 41.3851 -33.1639 -4.6854 13.0205 -39.4452 -5.6960 -0.8127 33.3176 -1.7020 -3.4845 2.0859 2.6730 -1.2448 -14.6406 18.7573 11.2795 -8.6010 -8.3513 13.8242 14.4762 -4.2320 7.0171 7.7925 0.0000 0.0000 0.0000 -71.5051 -62.3682 43.5906 156.7972 -34.3098 -112.7477 -0.0000 0.0000 -17.0902 25.5065 7.5358 3.5804 -7.1250 0.0000 -0.0000 -1.1267 38.3161 0.1855 0.0000 0.0000 0.0000 68.4020 31.4530 35.6266 -150.5470 40.4199 -108.9468 0.0000 -0.0000 -42.1894 -12.0784 -11.7871 2.5029 7.1250 -0.0000 -0.0000 13.4495 -41.6391 1.1379
1.8791 9.6394 0.8577 0.1418 -15.3785 8.3216 0.0000 0.0000 0.0000 2.4617 0.3396 -89.9361 26.5139 18.9507 109.3713 1.9159 -4.7440 -25.1017 0.2083 -2.9388 -8.1085 0.0000 0.0000 0.0000 -24.3703 -36.5521 -59.2030 -28.5430 -18.1515 115.7431 -0.8025 41.7872 -32.9233 -4.6890 13.0248 -39.4612 -5.5988 -0.7438 33.3291 -1.7640 -3.3718 2.0976 2.5074 -1.2035 -14.6502 18.7839 11.2358 -8.5166 -8.3473 13.7681 14.2939 -4.2488 6.9918 7.7113 0.0000 0.0000 0.0000 -71.0772 -62.2752 43.1812 156.7620 -34.3480 -112.7279 -0.0000 0.0000 -17.0956 25.5462 7.5096 3.5744 -7.1250 0.0000 -0.0000 -1.0907 38.2901 0.1803 0.0000 0.0000 0.0000 69.1831 30.1701 36.7474 -151.1649 39.8738 -109.3451 0.0000 -0.0000 -42.2561 -12.5870 -11.6738 2.5869 7.1250 -0.0000 -0.0000 12.9794 -41.5742 1.1178
1.8739 9.6587 0.8480 -0.0423 -15.4234 8.3059 0.0000 0.0000 0.0000 2.8109 0.1632 -89.6803 26.4514 18.9714 109.1791 1.9117 -4.5016 -25.1089 0.2226 -3.0372 -8.3822 0.0000 0.0000 0.0000 -24.0652 -36.4838 -59.1091 -28.4375 -18.1995 115.4048 -0.6481 42.2280 -32.6589 -4.6960 13.0330 -39.4922 -5.4411 -0.6643 33.3134 -1.8279 -3.2211 2.1062 2.2912 -1.1494 -14.6576 18.7396 11.1381 -8.4413 -8.3215 13.6451 14.1329 -4.2576 6.9329 7.6224 -0.0000 0.0000 0.0000 -70.8779 -62.1617 43.0525 156.7254 -34.3878 -112.7072 -0.0000 0.0000 -16.9896 25.5799 7.5808 3.6135 -7.1250 0.0000 -0.0000 -1.0667 38.3712 0.1742 -0.0000 0.0000 0.0000 70.0061 28.9504 37.9797 -151.6407 39.4449 -109.6488 0.0000 -0.0000 -42.0444 -12.9922 -11.5391 2.6425 7.1250 -0.0000 -0.0000 12.5946 -41.4778 1.1139
1.8656 9.6779 0.8365 -0.1806 -15.3772 8.2873 0.0000 0.0000 0.0000 3.1040 -0.0706 -89.4511 26.3766 18.9958 108.9489 1.9056 -4.2768 -25.1018 0.2401 -3.1534 -8.7060 0.0000 0.0000 0.0000 -23.8538 -36.3971 -58.9554 -28.3382 -18.2440 115.0872 -0.4863 42.6841 -32.3876 -4.7045 13.0431 -39.5301 -5.2493 -0.5729 33.2664 -1.8944 -3.0405 2.1187 2.0408 -1.0849 -14.6503 18.6244 11.0013 -8.4150 -8.2703 13.4676 14.0088 -4.2529 6.8457 7.5397 0.0000 0.0000 0.0000 -70.8710 -62.0422 43.1525 156.6945 -34.4212 -112.6897 -0.0000 0.0000 -16.8310 25.5685 7.6989 3.6674 -7.1250 0.0000 -0.0000 -1.0851 38.5007 0.1737 0.0000 0.0000 0.0000 70.8601 27.8573 39.3125 -151.9563 39.1564 -109.8487 0.0000 -0.0000 -41.5267 -13.2487 -11.3982 2.6641 7.1250 -0.0000 -0.0000 12.3384 -41.3608 1.1267
1.8543 9.6972 0.8230 -0.2687 -15.2494 8.2695 0.0000 0.0000 0.0000 3.3388 -0.3540 -89.2531 26.2886 19.0242 108.6787 1.8977 -4.0713 -25.0810 0.2619 -3.2924 -9.0939 0.0000 0.0000 0.0000 -23.7115 -36.2819 -58.7628 -28.2503 -18.2828 114.8068 -0.3482 43.0670 -32.1598 -4.7173 13.0582 -39.5867 -5.0414 -0.4644 33.1933 -1.9607 -2.8298 2.1339 1.7689 -1.0086 -14.6295 18.4489 10.8295 -8.4470 -8.1947 13.2384 13.9227 -4.2353 6.7316 7.4667 -0.0000 -0.0000 0.0000 -71.0416 -61.9123 43.4897 156.6776 -34.4395 -112.6802 -0.0000 0.0000 -16.6140 25.5399 7.8601 3.7387 -7.1250 0.0000 -0.0000 -1.1215 38.6764 0.1747 -0.0000 -0.0000 0.0000 71.7271 26.9542 40.7108 -152.0850 39.0379 -109.9299 0.0000 -0.0000 -40.7134 -13.3061 -11.3001 2.6533 7.1250 -0.0000 -0.0000 12.2656 -41.2680 1.1484
1.8401 9.7170 0.8074 -0.2946 -15.0460 8.2520 0.0000 0.0000 0.0000 3.5014 -0.6900 -89.0817 26.1846 19.0571 108.3601 1.8880 -3.8755 -25.0479 0.2883 -3.4530 -9.5426 0.0000 0.0000 0.0000 -23.6278 -36.1674 -58.5505 -28.1783 -18.3143 114.5775 -0.2542 43.3221 -32.0047 -4.7328 13.0765 -39.6554 -4.8504 -0.3363 33.1016 -2.0216 -2.5979 2.1525 1.5028 -0.9220 -14.5946 18.2005 10.6330 -8.5642 -8.0730 12.9657 13.8927 -4.1932 6.5952 7.4131 -0.0000 0.0000 0.0000 -71.3494 -61.7685 44.0198 156.6813 -34.4355 -112.6823 -0.0000 0.0000 -16.3632 25.5081 8.0386 3.8174 -7.1250 0.0000 -0.0000 -1.1624 38.8709 0.1756 -0.0000 0.0000 0.0000 72.5954 26.2926 42.1547 -152.0120 39.1052 -109.8839 0.0000 -0.0000 -39.6385 -13.1451 -11.2634 2.6117 7.1250 -0.0000 -0.0000 12.3968 -41.2166 1.1770
